<svg xmlns="http://www.w3.org/2000/svg" width="800" height="450" viewBox="0 0 800 450" fill="none">
  <defs>
    <linearGradient id="bg" x1="0" y1="0" x2="800" y2="450" gradientUnits="userSpaceOnUse">
      <stop stop-color="#052e2b"/><stop offset="1" stop-color="#134e4a"/>
    </linearGradient>
    <linearGradient id="acc" x1="0" y1="0" x2="1" y2="1">
      <stop stop-color="#34d399"/><stop offset="1" stop-color="#22d3ee"/>
    </linearGradient>
  </defs>
  <rect width="800" height="450" fill="url(#bg)"/>
  <circle cx="160" cy="90" r="200" fill="#10b981" opacity="0.22"/>
  <circle cx="700" cy="400" r="180" fill="#06b6d4" opacity="0.18"/>
  <g stroke="white" stroke-opacity="0.08" stroke-width="1.5">
    <path d="M0 150h800"/><path d="M0 300h800"/><path d="M200 0V450"/><path d="M400 0V450"/><path d="M600 0V450"/>
  </g>
  <rect x="40" y="70" width="150" height="40" rx="12" fill="#10b981" opacity="0.15"/>
  <text x="64" y="96" font-family="sans-serif" font-size="15" font-weight="600" fill="#34d399">AGENT BANKING</text>
  <text x="40" y="230" font-family="sans-serif" font-size="76" font-weight="700" fill="url(#acc)" letter-spacing="-2">AgentPay</text>
  <text x="40" y="272" font-family="sans-serif" font-size="19" fill="#99f6e4">Settlements · Reconciliation · Rails</text>
  <g transform="translate(560, 120)">
    <rect width="150" height="170" rx="18" fill="#134e4a" stroke="#34d399" stroke-opacity="0.4"/>
    <text x="75" y="48" text-anchor="middle" font-family="sans-serif" font-size="30" fill="#34d399">N</text>
    <text x="75" y="82" text-anchor="middle" font-family="sans-serif" font-size="14" font-weight="600" fill="white">Balance</text>
    <text x="75" y="112" text-anchor="middle" font-family="monospace" font-size="18" fill="#a7f3d0">₦ 12,450</text>
    <rect x="30" y="132" width="90" height="26" rx="13" fill="#34d399"/>
    <text x="75" y="150" text-anchor="middle" font-family="sans-serif" font-size="11" font-weight="700" fill="#052e2b">Send</text>
  </g>
  <rect x="620" y="360" width="150" height="40" rx="20" fill="#34d399"/>
  <text x="695" y="385" text-anchor="middle" font-family="sans-serif" font-size="15" font-weight="700" fill="#052e2b">In Development</text>
</svg>